<?xml version="1.0" encoding="UTF-8"?>
<svg id="Layer_1" xmlns="http://www.w3.org/2000/svg" viewBox="0 0 1012.4 1062.9">
  <defs>
    <style>
      .st0 {
        fill: url(#radial-gradient);
      }

      .st1 {
        fill: #fff;
      }
    </style>
    <radialGradient id="radial-gradient" cx="506.2" cy="530.6" fx="506.2" fy="530.6" r="519" gradientTransform="translate(0 1062) scale(1 -1)" gradientUnits="userSpaceOnUse">
      <stop offset="0" stop-color="#002554" stop-opacity=".9"/>
      <stop offset="1" stop-color="#002554"/>
    </radialGradient>
  </defs>
  <rect class="st1" x="70.8" y="0" width="844.4" height="1062.9"/>
  <path class="st0" d="M941.7,0h-444.7c-.3,33.9-.8,89.7-.8,151.2v346.2c0,44.6-5.4,86.3-16.3,125.2s-30.1,73.9-57.6,105c-28,32.2-67.6,59.9-118.6,83.2-51.1,23.3-118.1,38.9-201.1,46.7l-15.6-106.4c57-6.7,102.5-14.9,136.5-24.5,33.9-9.6,62.6-25.3,86-47.1,22.8-21.2,39.2-47.3,49-78.2,9.8-30.9,14.8-70.9,14.8-120.2s.1-105.9.4-157.6c.3-51.6.4-100.2.4-145.9,0-71.4-.7-138.9-1.1-177.7H70.8C31.7,0,0,31.7,0,70.8v921.4c0,39.1,31.7,70.8,70.8,70.8h383.8l-13.7-93.9c57-6.7,102.5-14.9,136.5-24.5,33.9-9.6,62.6-25.3,86-47.1,22.8-21.2,39.2-47.3,49-78.2,9.8-30.9,14.8-70.9,14.8-120.2s.1-105.9.4-157.5.4-100.2.4-145.9c0-110.5-1.6-211.8-1.6-211.8h124.9s-1.2,85.2-1.2,185.2v346.2c0,44.6-5.4,86.3-16.3,125.2-10.9,38.9-30.1,73.9-57.6,105-28,32.2-67.6,59.9-118.6,83.2-5.7,2.6-11.6,5-17.7,7.4-1.4.5-2.7,1.1-4.1,1.6-5.8,2.2-11.8,4.4-18,6.4-1.6.6-3.3,1.1-5,1.6-5.1,1.6-10.4,3.2-15.8,4.8-1.8.5-3.5,1-5.3,1.5-6.1,1.7-12.4,3.3-18.8,4.8-2.7.7-5.5,1.3-8.3,1.9-6.3,1.4-12.8,2.8-19.4,4.1h396.5c39.1,0,70.8-31.7,70.8-70.8V70.8C1012.4,31.7,980.8,0,941.7,0h0Z"/>
</svg>
