<?xml version="1.0" encoding="UTF-8"?><svg id="Layer_1" xmlns="http://www.w3.org/2000/svg" xmlns:xlink="http://www.w3.org/1999/xlink" viewBox="0 0 2246.85 1062.93"><defs><style>.cls-1{fill:#fff;}.cls-2{fill:url(#New_Gradient_Swatch_2);}.cls-3{fill:url(#New_Gradient_Swatch_2-2);}</style><radialGradient id="New_Gradient_Swatch_2" cx="1740.62" cy="531.47" fx="1740.62" fy="531.47" r="519" gradientUnits="userSpaceOnUse"><stop offset="0" stop-color="#002554" stop-opacity=".85"/><stop offset="1" stop-color="#002554"/></radialGradient><radialGradient id="New_Gradient_Swatch_2-2" cx="506.23" fx="506.23" r="519" xlink:href="#New_Gradient_Swatch_2"/></defs><rect class="cls-1" x="1305.16" width="844.42" height="1062.93"/><path class="cls-2" d="m2176.08,0h-444.66c-.34,33.94-.78,89.74-.78,151.21v346.17c0,44.6-5.45,86.34-16.34,125.24-10.89,38.9-30.09,73.9-57.56,105.01-28.01,32.16-67.56,59.89-118.64,83.24-51.08,23.33-118.12,38.88-201.08,46.67l-15.56-106.43c57.04-6.74,102.54-14.89,136.51-24.51,33.95-9.58,62.63-25.28,85.96-47.07,22.82-21.25,39.16-47.32,49.01-78.17,9.84-30.87,14.79-70.94,14.79-120.22,0-53.42.12-105.94.38-157.55.26-51.61.38-100.23.38-145.89,0-71.36-.65-138.85-1.1-177.72h-302.23c-39.09,0-70.77,31.69-70.77,70.77v921.39c0,39.09,31.69,70.77,70.77,70.77h383.77l-13.73-93.92c57.04-6.74,102.54-14.89,136.51-24.51,33.95-9.58,62.63-25.28,85.96-47.07,22.82-21.25,39.16-47.32,49.01-78.17,9.84-30.87,14.79-70.94,14.79-120.22,0-53.42.12-105.94.38-157.55.26-51.61.38-100.23.38-145.89,0-110.47-1.55-211.76-1.55-211.76h124.86s-1.17,85.16-1.17,185.25v346.17c0,44.6-5.45,86.34-16.34,125.24-10.89,38.9-30.09,73.9-57.56,105.02-28.01,32.16-67.56,59.89-118.64,83.24-5.66,2.59-11.59,5.04-17.65,7.43-1.36.54-2.7,1.08-4.08,1.6-5.82,2.22-11.79,4.37-17.96,6.42-1.64.55-3.34,1.07-5.01,1.61-5.13,1.64-10.38,3.23-15.75,4.76-1.77.5-3.49,1.03-5.28,1.52-6.12,1.68-12.43,3.26-18.84,4.79-2.74.66-5.51,1.3-8.30,1.93-6.34,1.43-12.77,2.81-19.39,4.1h0s396.49,0,396.49,0c39.09,0,70.77-31.69,70.77-70.77V70.77c0-39.09-31.69-70.77-70.77-70.77Z"/><path class="cls-3" d="m941.68,0h-444.66c-.34,33.94-.78,89.74-.78,151.21v346.17c0,44.6-5.45,86.34-16.34,125.24s-30.09,73.9-57.56,105.01c-28.01,32.16-67.56,59.89-118.64,83.24-51.08,23.33-118.12,38.88-201.08,46.67l-15.56-106.43c57.04-6.74,102.54-14.89,136.51-24.51,33.95-9.58,62.63-25.28,85.96-47.07,22.82-21.25,39.16-47.32,49.01-78.17,9.84-30.87,14.79-70.94,14.79-120.22,0-53.42.12-105.94.38-157.55.26-51.61.38-100.23.38-145.89,0-71.36-.65-138.85-1.1-177.72H70.77C31.69,0,0,31.69,0,70.77v921.39c0,39.09,31.69,70.77,70.77,70.77h383.77l-13.73-93.92c57.04-6.74,102.54-14.89,136.51-24.51,33.95-9.58,62.63-25.28,85.96-47.07,22.82-21.25,39.16-47.32,49.01-78.17,9.84-30.87,14.79-70.94,14.79-120.22,0-53.42.12-105.94.38-157.55.26-51.61.38-100.23.38-145.89,0-110.47-1.55-211.76-1.55-211.76h124.86s-1.17,85.16-1.17,185.25v346.17c0,44.6-5.45,86.34-16.34,125.24-10.89,38.9-30.09,73.9-57.56,105.02-28.01,32.16-67.56,59.89-118.64,83.24-5.66,2.59-11.59,5.04-17.65,7.43-1.36.54-2.7,1.08-4.08,1.6-5.82,2.22-11.79,4.37-17.96,6.42-1.64.55-3.34,1.07-5.01,1.61-5.13,1.64-10.38,3.23-15.75,4.76-1.77.5-3.49,1.03-5.28,1.52-6.12,1.68-12.43,3.26-18.84,4.79-2.74.66-5.51,1.3-8.30,1.93-6.34,1.43-12.77,2.81-19.39,4.1h0s396.49,0,396.49,0c39.09,0,70.77-31.69,70.77-70.77V70.77c0-39.09-31.69-70.77-70.77-70.77Z"/></svg>
